<?xml version="1.0" encoding="UTF-8"?>
<svg width="266px" height="99px" viewBox="0 0 266 99" version="1.1" xmlns="http://www.w3.org/2000/svg" xmlns:xlink="http://www.w3.org/1999/xlink">
    <!-- Generator: Sketch 63 (92445) - https://sketch.com -->
    <title>SecondLive-logo-white</title>
    <desc>Created with Sketch.</desc>
    <defs>
        <linearGradient x1="50%" y1="19.9640032%" x2="91.2841797%" y2="82.2549226%" id="linearGradient-1">
            <stop stop-color="#A219AF" offset="0%"></stop>
            <stop stop-color="#4BDCFF" offset="100%"></stop>
        </linearGradient>
        <linearGradient x1="22.59893%" y1="24.4897959%" x2="100%" y2="112.522513%" id="linearGradient-2">
            <stop stop-color="#D037DF" offset="0%"></stop>
            <stop stop-color="#5383FF" offset="100%"></stop>
        </linearGradient>
    </defs>
    <g id="SecondLive-logo-white" stroke="none" stroke-width="1" fill="none" fill-rule="evenodd">
        <g id="SecondLive-logo" transform="translate(36.000000, 27.000000)" fill-rule="nonzero">
            <path d="M66.109375,35.2929688 C67.5234375,35.2929688 68.7460938,35.0585938 69.7773438,34.5898438 C70.8085938,34.1210938 71.5917969,33.4726562 72.1269531,32.6445312 C72.6621094,31.8164062 72.9296875,30.8828125 72.9296875,29.84375 C72.9296875,28.9765625 72.7753906,28.2441406 72.4667969,27.6464844 C72.1582031,27.0488281 71.7285156,26.5546875 71.1777344,26.1640625 C70.6269531,25.7734375 69.9589844,25.4414062 69.1738281,25.1679688 C68.3886719,24.8945312 67.5117188,24.6445312 66.5429688,24.4179688 C65.7695312,24.2226562 65.2148438,24.0742188 64.8789062,23.9726562 C64.5429688,23.8710938 64.2109375,23.7304688 63.8828125,23.5507812 C63.5546875,23.3710938 63.296875,23.15625 63.109375,22.90625 C62.921875,22.65625 62.828125,22.359375 62.828125,22.015625 C62.828125,21.4609375 63.1035156,20.9863281 63.6542969,20.5917969 C64.2050781,20.1972656 64.9296875,20 65.828125,20 C66.796875,20 67.5,20.1816406 67.9375,20.5449219 C68.375,20.9082031 68.75,21.4140625 69.0625,22.0625 C69.3046875,22.515625 69.5292969,22.8417969 69.7363281,23.0410156 C69.9433594,23.2402344 70.2460938,23.3398438 70.6445312,23.3398438 C71.0820312,23.3398438 71.4472656,23.1738281 71.7402344,22.8417969 C72.0332031,22.5097656 72.1796875,22.1367188 72.1796875,21.7226562 C72.1796875,21.2695312 72.0625,20.8046875 71.828125,20.328125 C71.59375,19.8515625 71.2226562,19.3964844 70.7148438,18.9628906 C70.2070312,18.5292969 69.5683594,18.1816406 68.7988281,17.9199219 C68.0292969,17.6582031 67.1171875,17.5273438 66.0625,17.5273438 C64.7421875,17.5273438 63.59375,17.7246094 62.6171875,18.1191406 C61.640625,18.5136719 60.8945312,19.078125 60.3789062,19.8125 C59.8632812,20.546875 59.6054688,21.3867188 59.6054688,22.3320312 C59.6054688,23.3242188 59.8496094,24.1542969 60.3378906,24.8222656 C60.8261719,25.4902344 61.4863281,26.0175781 62.3183594,26.4042969 C63.1503906,26.7910156 64.1835938,27.1289062 65.4179688,27.4179688 C66.3398438,27.6289062 67.0761719,27.828125 67.6269531,28.015625 C68.1777344,28.203125 68.6269531,28.4746094 68.9746094,28.8300781 C69.3222656,29.1855469 69.4960938,29.6484375 69.4960938,30.21875 C69.4960938,30.9375 69.1738281,31.5371094 68.5292969,32.0175781 C67.8847656,32.4980469 67.046875,32.7382812 66.015625,32.7382812 C65.265625,32.7382812 64.6601562,32.6191406 64.1992188,32.3808594 C63.7382812,32.1425781 63.3808594,31.8398438 63.1269531,31.4726562 C62.8730469,31.1054688 62.6367188,30.6484375 62.4179688,30.1015625 C62.2382812,29.640625 62.0214844,29.2929688 61.7675781,29.0585938 C61.5136719,28.8242188 61.203125,28.7070312 60.8359375,28.7070312 C60.3828125,28.7070312 60.0097656,28.8574219 59.7167969,29.1582031 C59.4238281,29.4589844 59.2773438,29.8203125 59.2773438,30.2421875 C59.2773438,30.96875 59.5214844,31.7167969 60.0097656,32.4863281 C60.4980469,33.2558594 61.1328125,33.8710938 61.9140625,34.3320312 C63.015625,34.9726562 64.4140625,35.2929688 66.109375,35.2929688 Z M81.5664062,35.2929688 C82.4648438,35.2929688 83.2597656,35.1757812 83.9511719,34.9414062 C84.6425781,34.7070312 85.2167969,34.4121094 85.6738281,34.0566406 C86.1308594,33.7011719 86.4726562,33.3300781 86.6992188,32.9433594 C86.9257812,32.5566406 87.0390625,32.21875 87.0390625,31.9296875 C87.0390625,31.6015625 86.9375,31.3476562 86.734375,31.1679688 C86.53125,30.9882812 86.265625,30.8984375 85.9375,30.8984375 C85.6328125,30.8984375 85.3984375,30.96875 85.234375,31.109375 C84.8359375,31.484375 84.5117188,31.78125 84.2617188,32 C84.0117188,32.21875 83.7382812,32.4238281 83.4414062,32.6152344 C83.1445312,32.8066406 82.8378906,32.9472656 82.5214844,33.0371094 C82.2050781,33.1269531 81.8554688,33.171875 81.4726562,33.171875 C80.9023438,33.171875 80.3808594,33.03125 79.9082031,32.75 C79.4355469,32.46875 79.0566406,32.0507812 78.7714844,31.4960938 C78.4863281,30.9414062 78.3398438,30.3007812 78.3320312,29.5742188 L78.3320312,29.5742188 L84.5898438,29.5742188 C85.4257812,29.5742188 86.0742188,29.4550781 86.5351562,29.2167969 C86.9960938,28.9785156 87.2265625,28.4570312 87.2265625,27.6523438 C87.2265625,26.7851562 87.0039062,25.9335938 86.5585938,25.0976562 C86.1132812,24.2617188 85.4433594,23.5800781 84.5488281,23.0527344 C83.6542969,22.5253906 82.5820312,22.2617188 81.3320312,22.2617188 C80.3710938,22.2617188 79.4960938,22.4160156 78.7070312,22.7246094 C77.9179688,23.0332031 77.2539062,23.4765625 76.7148438,24.0546875 C76.1757812,24.6328125 75.765625,25.3261719 75.484375,26.1347656 C75.203125,26.9433594 75.0625,27.8203125 75.0625,28.765625 C75.0625,30.7734375 75.6328125,32.3632812 76.7734375,33.5351562 C77.9140625,34.7070312 79.5117188,35.2929688 81.5664062,35.2929688 Z M84.1328125,27.7578125 L78.3320312,27.7578125 C78.4414062,26.6796875 78.7519531,25.8652344 79.2636719,25.3144531 C79.7753906,24.7636719 80.4296875,24.4882812 81.2265625,24.4882812 C82.0625,24.4882812 82.7363281,24.7597656 83.2480469,25.3027344 C83.7597656,25.8457031 84.0546875,26.6640625 84.1328125,27.7578125 L84.1328125,27.7578125 Z M95.59375,35.2695312 C96.5234375,35.2695312 97.359375,35.1445312 98.1015625,34.8945312 C98.84375,34.6445312 99.4589844,34.3144531 99.9472656,33.9042969 C100.435547,33.4941406 100.798828,33.0625 101.037109,32.609375 C101.275391,32.15625 101.394531,31.7304688 101.394531,31.3320312 C101.394531,30.9960938 101.265625,30.6796875 101.007812,30.3828125 C100.75,30.0859375 100.425781,29.9375 100.035156,29.9375 C99.7070312,29.9375 99.4296875,30.0390625 99.203125,30.2421875 C98.9765625,30.4453125 98.765625,30.7265625 98.5703125,31.0859375 C98.21875,31.6953125 97.8144531,32.1484375 97.3574219,32.4453125 C96.9003906,32.7421875 96.3515625,32.890625 95.7109375,32.890625 C95.234375,32.890625 94.796875,32.7988281 94.3984375,32.6152344 C94,32.4316406 93.6601562,32.1621094 93.3789062,31.8066406 C93.0976562,31.4511719 92.8828125,31.0214844 92.734375,30.5175781 C92.5859375,30.0136719 92.5117188,29.4609375 92.5117188,28.859375 C92.5117188,27.578125 92.8007812,26.5683594 93.3789062,25.8300781 C93.9570312,25.0917969 94.71875,24.7226562 95.6640625,24.7226562 C96.3203125,24.7226562 96.8613281,24.8710938 97.2871094,25.1679688 C97.7128906,25.4648438 98.1210938,25.9101562 98.5117188,26.5039062 C98.7304688,26.8085938 98.9277344,27.0292969 99.1035156,27.1660156 C99.2792969,27.3027344 99.5,27.3710938 99.765625,27.3710938 C100.171875,27.3710938 100.517578,27.2382812 100.802734,26.9726562 C101.087891,26.7070312 101.230469,26.3828125 101.230469,26 C101.230469,25.625 101.103516,25.2207031 100.849609,24.7871094 C100.595703,24.3535156 100.228516,23.9453125 99.7480469,23.5625 C99.2675781,23.1796875 98.6816406,22.8671875 97.9902344,22.625 C97.2988281,22.3828125 96.5390625,22.2617188 95.7109375,22.2617188 C94.375,22.2617188 93.2265625,22.5371094 92.265625,23.0878906 C91.3046875,23.6386719 90.5703125,24.4179688 90.0625,25.4257812 C89.5546875,26.4335938 89.3007812,27.59375 89.3007812,28.90625 C89.3007812,30.84375 89.8554688,32.3886719 90.9648438,33.5410156 C92.0742188,34.6933594 93.6171875,35.2695312 95.59375,35.2695312 Z M109.773438,35.2929688 C110.75,35.2929688 111.628906,35.1386719 112.410156,34.8300781 C113.191406,34.5214844 113.863281,34.078125 114.425781,33.5 C114.988281,32.921875 115.417969,32.2304688 115.714844,31.4257812 C116.011719,30.6210938 116.160156,29.7421875 116.160156,28.7890625 C116.160156,27.828125 116.013672,26.9492188 115.720703,26.1523438 C115.427734,25.3554688 115,24.6679688 114.4375,24.0898438 C113.875,23.5117188 113.199219,23.0664062 112.410156,22.7539062 C111.621094,22.4414062 110.742188,22.2851562 109.773438,22.2851562 C108.820312,22.2851562 107.949219,22.4394531 107.160156,22.7480469 C106.371094,23.0566406 105.699219,23.4960938 105.144531,24.0664062 C104.589844,24.6367188 104.164062,25.3242188 103.867188,26.1289062 C103.570312,26.9335938 103.421875,27.8203125 103.421875,28.7890625 C103.421875,29.75 103.568359,30.6269531 103.861328,31.4199219 C104.154297,32.2128906 104.583984,32.9003906 105.150391,33.4824219 C105.716797,34.0644531 106.386719,34.5117188 107.160156,34.8242188 C107.933594,35.1367188 108.804688,35.2929688 109.773438,35.2929688 Z M109.773438,32.9140625 C109.132812,32.9140625 108.576172,32.7480469 108.103516,32.4160156 C107.630859,32.0839844 107.267578,31.6054688 107.013672,30.9804688 C106.759766,30.3554688 106.632812,29.625 106.632812,28.7890625 C106.632812,27.9453125 106.761719,27.2070312 107.019531,26.5742188 C107.277344,25.9414062 107.644531,25.4628906 108.121094,25.1386719 C108.597656,24.8144531 109.148438,24.6523438 109.773438,24.6523438 C110.742188,24.6523438 111.513672,25.015625 112.087891,25.7421875 C112.662109,26.46875 112.949219,27.484375 112.949219,28.7890625 C112.949219,30.078125 112.662109,31.0878906 112.087891,31.8183594 C111.513672,32.5488281 110.742188,32.9140625 109.773438,32.9140625 Z M128.40625,35.2929688 C128.875,35.2929688 129.255859,35.1289062 129.548828,34.8007812 C129.841797,34.4726562 129.988281,33.9882812 129.988281,33.3476562 L129.988281,33.3476562 L129.988281,27.3945312 C129.988281,26.6914062 129.957031,26.1132812 129.894531,25.6601562 C129.832031,25.2070312 129.695312,24.7851562 129.484375,24.3945312 C129.15625,23.7226562 128.660156,23.203125 127.996094,22.8359375 C127.332031,22.46875 126.578125,22.2851562 125.734375,22.2851562 C124.867188,22.2851562 124.099609,22.4589844 123.431641,22.8066406 C122.763672,23.1542969 122.148438,23.6992188 121.585938,24.4414062 L121.585938,24.4414062 L121.585938,24.0546875 C121.585938,23.671875 121.517578,23.3476562 121.380859,23.0820312 C121.244141,22.8164062 121.0625,22.6171875 120.835938,22.484375 C120.609375,22.3515625 120.355469,22.2851562 120.074219,22.2851562 C119.613281,22.2851562 119.25,22.4355469 118.984375,22.7363281 C118.71875,23.0371094 118.585938,23.4921875 118.585938,24.1015625 L118.585938,24.1015625 L118.585938,33.3476562 C118.585938,33.9726562 118.734375,34.453125 119.03125,34.7890625 C119.328125,35.125 119.707031,35.2929688 120.167969,35.2929688 C120.644531,35.2929688 121.033203,35.1308594 121.333984,34.8066406 C121.634766,34.4824219 121.785156,33.9960938 121.785156,33.3476562 L121.785156,33.3476562 L121.785156,29.3398438 C121.785156,28.0351562 121.863281,27.1445312 122.019531,26.6679688 C122.238281,26.0742188 122.582031,25.6074219 123.050781,25.2675781 C123.519531,24.9277344 124.039062,24.7578125 124.609375,24.7578125 C125.484375,24.7578125 126.068359,25.0371094 126.361328,25.5957031 C126.654297,26.1542969 126.800781,26.9609375 126.800781,28.015625 L126.800781,28.015625 L126.800781,33.3476562 C126.800781,33.9726562 126.949219,34.453125 127.246094,34.7890625 C127.542969,35.125 127.929688,35.2929688 128.40625,35.2929688 Z M143.453125,35.2929688 C143.898438,35.2929688 144.261719,35.140625 144.542969,34.8359375 C144.824219,34.53125 144.964844,34.0742188 144.964844,33.4648438 L144.964844,33.4648438 L144.964844,19.3554688 C144.964844,18.7539062 144.833984,18.2988281 144.572266,17.9902344 C144.310547,17.6816406 143.9375,17.5273438 143.453125,17.5273438 C142.96875,17.5273438 142.595703,17.6953125 142.333984,18.03125 C142.072266,18.3671875 141.941406,18.8632812 141.941406,19.5195312 L141.941406,19.5195312 L141.941406,24.2421875 C141.339844,23.5859375 140.722656,23.0996094 140.089844,22.7832031 C139.457031,22.4667969 138.679688,22.3085938 137.757812,22.3085938 C136.164062,22.3085938 134.878906,22.8671875 133.902344,23.984375 C132.925781,25.1015625 132.4375,26.6601562 132.4375,28.6601562 C132.4375,29.6054688 132.560547,30.484375 132.806641,31.296875 C133.052734,32.109375 133.414062,32.8164062 133.890625,33.4179688 C134.367188,34.0195312 134.931641,34.4824219 135.583984,34.8066406 C136.236328,35.1308594 136.945312,35.2929688 137.710938,35.2929688 C138.289062,35.2929688 138.822266,35.2128906 139.310547,35.0527344 C139.798828,34.8925781 140.251953,34.6582031 140.669922,34.3496094 C141.087891,34.0410156 141.511719,33.640625 141.941406,33.1484375 L141.941406,33.1484375 L141.941406,33.4648438 C141.941406,34.0507812 142.083984,34.5019531 142.369141,34.8183594 C142.654297,35.1347656 143.015625,35.2929688 143.453125,35.2929688 Z M138.695312,32.8203125 C138.140625,32.8203125 137.628906,32.6660156 137.160156,32.3574219 C136.691406,32.0488281 136.322266,31.5898438 136.052734,30.9804688 C135.783203,30.3710938 135.648438,29.6328125 135.648438,28.765625 C135.648438,27.9453125 135.775391,27.2246094 136.029297,26.6035156 C136.283203,25.9824219 136.640625,25.5058594 137.101562,25.1738281 C137.5625,24.8417969 138.085938,24.6757812 138.671875,24.6757812 C139.234375,24.6757812 139.751953,24.8378906 140.224609,25.1621094 C140.697266,25.4863281 141.072266,25.9550781 141.349609,26.5683594 C141.626953,27.1816406 141.765625,27.9140625 141.765625,28.765625 C141.765625,29.671875 141.626953,30.4277344 141.349609,31.0332031 C141.072266,31.6386719 140.701172,32.0878906 140.236328,32.3808594 C139.771484,32.6738281 139.257812,32.8203125 138.695312,32.8203125 Z M158.863281,35 C159.433594,35 159.867188,34.8691406 160.164062,34.6074219 C160.460938,34.3457031 160.609375,34.0039062 160.609375,33.5820312 C160.609375,33.1679688 160.458984,32.8242188 160.158203,32.5507812 C159.857422,32.2773438 159.425781,32.140625 158.863281,32.140625 L158.863281,32.140625 L151.808594,32.140625 L151.808594,19.6367188 C151.808594,18.9257812 151.646484,18.3964844 151.322266,18.0488281 C150.998047,17.7011719 150.574219,17.5273438 150.050781,17.5273438 C149.535156,17.5273438 149.119141,17.703125 148.802734,18.0546875 C148.486328,18.40625 148.328125,18.9335938 148.328125,19.6367188 L148.328125,19.6367188 L148.328125,32.8671875 C148.328125,33.6171875 148.494141,34.1601562 148.826172,34.4960938 C149.158203,34.8320312 149.703125,35 150.460938,35 L150.460938,35 L158.863281,35 Z M164.289062,20.796875 C164.71875,20.796875 165.089844,20.6582031 165.402344,20.3808594 C165.714844,20.1035156 165.871094,19.71875 165.871094,19.2265625 C165.871094,18.71875 165.710938,18.3320312 165.390625,18.0664062 C165.070312,17.8007812 164.703125,17.6679688 164.289062,17.6679688 C163.859375,17.6679688 163.482422,17.8144531 163.158203,18.1074219 C162.833984,18.4003906 162.671875,18.7734375 162.671875,19.2265625 C162.671875,19.7265625 162.830078,20.1132812 163.146484,20.3867188 C163.462891,20.6601562 163.84375,20.796875 164.289062,20.796875 Z M164.253906,35.2929688 C164.722656,35.2929688 165.109375,35.1289062 165.414062,34.8007812 C165.71875,34.4726562 165.871094,33.9882812 165.871094,33.3476562 L165.871094,33.3476562 L165.871094,24.1015625 C165.871094,23.53125 165.71875,23.0859375 165.414062,22.765625 C165.109375,22.4453125 164.722656,22.2851562 164.253906,22.2851562 C163.785156,22.2851562 163.404297,22.4453125 163.111328,22.765625 C162.818359,23.0859375 162.671875,23.5625 162.671875,24.1953125 L162.671875,24.1953125 L162.671875,33.3476562 C162.671875,33.9726562 162.818359,34.453125 163.111328,34.7890625 C163.404297,35.125 163.785156,35.2929688 164.253906,35.2929688 Z M174.027344,35.2929688 C174.378906,35.2929688 174.677734,35.2265625 174.923828,35.09375 C175.169922,34.9609375 175.376953,34.7753906 175.544922,34.5371094 C175.712891,34.2988281 175.865234,34.0117188 176.001953,33.6757812 C176.138672,33.3398438 176.25,33.0625 176.335938,32.84375 L176.335938,32.84375 L179.40625,25.2265625 C179.492188,25.015625 179.568359,24.828125 179.634766,24.6640625 C179.701172,24.5 179.759766,24.3242188 179.810547,24.1367188 C179.861328,23.9492188 179.886719,23.7851562 179.886719,23.6445312 C179.886719,23.2851562 179.744141,22.96875 179.458984,22.6953125 C179.173828,22.421875 178.828125,22.2851562 178.421875,22.2851562 C177.992188,22.2851562 177.671875,22.4121094 177.460938,22.6660156 C177.25,22.9199219 177.035156,23.3515625 176.816406,23.9609375 L176.816406,23.9609375 L174.027344,31.5429688 L171.4375,24.2773438 C171.195312,23.5585938 170.974609,23.046875 170.775391,22.7421875 C170.576172,22.4375 170.210938,22.2851562 169.679688,22.2851562 C169.40625,22.2851562 169.152344,22.3535156 168.917969,22.4902344 C168.683594,22.6269531 168.5,22.8027344 168.367188,23.0175781 C168.234375,23.2324219 168.167969,23.4492188 168.167969,23.6679688 C168.167969,23.8085938 168.193359,23.9765625 168.244141,24.171875 C168.294922,24.3671875 168.357422,24.5585938 168.431641,24.7460938 C168.505859,24.9335938 168.578125,25.1210938 168.648438,25.3085938 L168.648438,25.3085938 L171.695312,32.84375 C172,33.5703125 172.216797,34.0566406 172.345703,34.3027344 C172.474609,34.5488281 172.673828,34.7753906 172.943359,34.9824219 C173.212891,35.1894531 173.574219,35.2929688 174.027344,35.2929688 Z M187.773438,35.2929688 C188.671875,35.2929688 189.466797,35.1757812 190.158203,34.9414062 C190.849609,34.7070312 191.423828,34.4121094 191.880859,34.0566406 C192.337891,33.7011719 192.679688,33.3300781 192.90625,32.9433594 C193.132812,32.5566406 193.246094,32.21875 193.246094,31.9296875 C193.246094,31.6015625 193.144531,31.3476562 192.941406,31.1679688 C192.738281,30.9882812 192.472656,30.8984375 192.144531,30.8984375 C191.839844,30.8984375 191.605469,30.96875 191.441406,31.109375 C191.042969,31.484375 190.71875,31.78125 190.46875,32 C190.21875,32.21875 189.945312,32.4238281 189.648438,32.6152344 C189.351562,32.8066406 189.044922,32.9472656 188.728516,33.0371094 C188.412109,33.1269531 188.0625,33.171875 187.679688,33.171875 C187.109375,33.171875 186.587891,33.03125 186.115234,32.75 C185.642578,32.46875 185.263672,32.0507812 184.978516,31.4960938 C184.693359,30.9414062 184.546875,30.3007812 184.539062,29.5742188 L184.539062,29.5742188 L190.796875,29.5742188 C191.632812,29.5742188 192.28125,29.4550781 192.742188,29.2167969 C193.203125,28.9785156 193.433594,28.4570312 193.433594,27.6523438 C193.433594,26.7851562 193.210938,25.9335938 192.765625,25.0976562 C192.320312,24.2617188 191.650391,23.5800781 190.755859,23.0527344 C189.861328,22.5253906 188.789062,22.2617188 187.539062,22.2617188 C186.578125,22.2617188 185.703125,22.4160156 184.914062,22.7246094 C184.125,23.0332031 183.460938,23.4765625 182.921875,24.0546875 C182.382812,24.6328125 181.972656,25.3261719 181.691406,26.1347656 C181.410156,26.9433594 181.269531,27.8203125 181.269531,28.765625 C181.269531,30.7734375 181.839844,32.3632812 182.980469,33.5351562 C184.121094,34.7070312 185.71875,35.2929688 187.773438,35.2929688 Z M190.339844,27.7578125 L184.539062,27.7578125 C184.648438,26.6796875 184.958984,25.8652344 185.470703,25.3144531 C185.982422,24.7636719 186.636719,24.4882812 187.433594,24.4882812 C188.269531,24.4882812 188.943359,24.7597656 189.455078,25.3027344 C189.966797,25.8457031 190.261719,26.6640625 190.339844,27.7578125 L190.339844,27.7578125 Z" id="SecondLive" fill="#FFFFFF"></path>
            <g id="secondlive">
                <g id="3">
                    <path d="M22.024275,9.00585 C21.12915,9.522975 19.984125,9.21585 19.467525,8.320725 L16.309125,2.8497 C15.792,1.954575 16.099125,0.80955 16.99425,0.29295 C17.889375,-0.224175 19.0344,0.08295 19.551,0.978075 L22.7094,6.4491 C23.226,7.344225 22.9194,8.488725 22.024275,9.00585 L22.024275,9.00585 Z M25.2609,11.254425 C24.416175,10.7667 24.1269,9.686775 24.614625,8.842575 L27.8796,3.1878 C28.367325,2.343075 29.44725,2.0538 30.29145,2.541525 C31.136175,3.02925 31.42545,4.109175 30.937725,4.953375 L27.67275,10.60815 C27.185025,11.45235 26.1051,11.74215 25.2609,11.254425 L25.2609,11.254425 Z" id="6" fill="#C347C4"></path>
                    <path d="M34.457325,45.9816 L13.08615,45.9816 C5.859,45.9816 0,40.1226 0,32.89545 L0,20.88135 C0,13.6542 5.859,7.7952 13.08615,7.7952 L34.45785,7.7952 C41.685,7.7952 47.544,13.6542 47.544,20.88135 L47.544,32.894925 C47.544,40.1226 41.685,45.9816 34.457325,45.9816 Z" id="5" fill="url(#linearGradient-1)"></path>
                    <path d="M31.216857,42.336 L15.823143,42.336 C13.0328013,42.336 10.4088448,41.2488142 8.4356393,39.2742431 C6.46243386,37.299672 5.376,34.6745161 5.376,31.8816264 L5.376,23.2223736 C5.376,20.4301006 6.46243386,17.804328 8.4356393,15.8297569 C10.4088448,13.8551858 13.032185,12.768 15.823143,12.768 L31.216857,12.768 C34.0071987,12.768 36.6311552,13.8551858 38.6043607,15.8297569 C40.5775661,17.804328 41.664,20.4294839 41.664,23.2223736 L41.664,31.8816264 C41.664,34.6738994 40.5775661,37.299672 38.6043607,39.2742431 C36.630539,41.2488142 34.0071987,42.336 31.216857,42.336 Z" id="4" fill="#FFFFFF"></path>
                </g>
                <path d="M12.9319394,32.9706105 C12.5538501,32.9706105 12.1678202,33.0196356 11.8001146,32.9555259 C11.4651973,32.8937757 11.1451167,32.7657007 10.8576399,32.5784102 C10.5876633,32.4024228 10.4703884,32.0856456 10.6371387,31.7569264 C10.8234347,31.3898671 10.9785796,30.9731542 11.2571074,30.6940885 C11.944265,29.999567 12.6827303,29.3559562 13.4273037,28.7261729 C13.5745081,28.6010961 13.8432631,28.6287513 14.0558238,28.5860116 C13.9922999,28.8223374 13.9770297,29.0907181 13.8536468,29.2861897 C13.6752912,29.5690266 13.3955417,29.7814684 13.198862,30.0542488 C12.8360428,30.5583269 13.0638737,31.0812607 13.6752912,31.0869174 C14.2268497,31.0919456 14.7784081,30.9850962 15.3311882,30.9373282 C15.6610238,30.9103015 15.6836237,30.739971 15.5871162,30.4609053 C15.3953229,29.9078022 15.1332868,29.3590988 15.0618225,28.7877685 C14.8541482,27.1278307 14.7619164,25.4848631 15.3391287,23.8362388 C15.8906872,22.2617806 16.6767954,20.8783944 17.8672577,19.768417 C19.1572814,18.5647893 20.6403202,17.6835955 22.4073839,17.4623543 C23.3003834,17.3504766 24.2110962,17.238599 25.1034848,17.2951663 C26.3055524,17.3705895 27.434934,17.7847882 28.5240023,18.3611468 C30.4004006,19.3548468 31.7374564,20.8369116 32.591975,22.7979135 C32.7556712,23.1744007 32.971286,23.2422815 33.2510355,23.0021845 C33.6651624,22.6470672 34.0560788,22.259895 34.4414978,21.8708373 C34.8965488,21.4113846 34.4372221,20.7897721 33.9345282,20.7941718 C33.6321789,20.7973145 33.3249431,20.833769 33.0293127,20.7904007 C32.8344653,20.7614885 32.6561098,20.6156704 32.4704245,20.52202 C32.6231262,20.3818586 32.766055,20.1342193 32.9297512,20.1191347 C34.0676841,20.0166849 35.2105034,19.8966364 36.3496579,19.9110925 C37.3477161,19.9242915 37.771616,20.8978787 37.1467607,21.7011352 C36.3032366,22.7840859 35.2917407,23.6923063 34.188013,24.499334 C31.7734941,26.2654927 29.1415279,27.6400795 26.4564216,28.8757621 C24.0565621,29.9807112 21.5595842,30.8782467 19.0632172,31.736185 C17.5136006,32.2685467 15.8900764,32.5802957 14.289152,32.9416983 C13.85609,33.0391199 13.385158,32.9561544 12.9319394,32.9561544 L12.9319394,32.9706105 L12.9319394,32.9706105 Z M33.24,26.88 C33.1424628,27.5779611 33.1023709,28.154452 32.9779062,28.7079621 C32.571601,30.5175395 31.8200262,32.1491795 30.6394073,33.4906043 C29.3337255,34.9731971 27.7270547,35.9331399 25.8732499,36.273913 C24.8918942,36.4544767 23.8782255,36.4328091 22.8783198,36.4794274 C22.6946148,36.4879631 22.5025324,36.3993227 22.3224177,36.3303802 C21.3643991,35.9633432 21.2267699,35.3382643 21.8927754,34.5102972 C23.0524506,33.0677567 24.4951632,32.0474072 25.9779677,31.0559479 C28.1285729,29.6160338 30.3587636,28.3481477 32.6170785,27.1334459 C32.7678722,27.0507148 32.9336255,27.0027833 33.24,26.88 L33.24,26.88 Z" id="2" fill="url(#linearGradient-2)"></path>
            </g>
        </g>
    </g>
</svg>